<svg width="88" height="51" viewBox="0 0 88 51" fill="none" xmlns="http://www.w3.org/2000/svg">
<path fill-rule="evenodd" clip-rule="evenodd" d="M64.6868 20.4873C64.7805 20.6061 64.8745 20.7256 64.9688 20.846C81.4688 26.1867 71.1563 49.9613 59.4687 43.0702C51.3907 53.4069 37.9844 53.5792 28.1875 43.9316C10.6563 47.0326 9.79678 21.5351 22 20.846C22.0589 20.8426 22.1176 20.8385 22.1761 20.8335C30.2128 -2.96085 58.2817 0.138693 64.6868 20.4873Z" fill="#F9DCFF"/>
<path fill-rule="evenodd" clip-rule="evenodd" d="M73.2992 34.6514C71.9873 41.3022 65.9387 46.8849 59.4687 43.0701C51.3907 53.4069 37.9844 53.5791 28.1874 43.9315C19.7637 45.4216 15.1891 40.3087 14.0634 34.5179C18.1494 41.5993 22.2546 43.1399 28.5312 41.175C37.9844 50.8227 47.4375 51.6841 59.4687 41.175C64.6156 42.7663 68.032 41.2928 73.2992 34.6514Z" fill="#A292E6"/>
<path fill-rule="evenodd" clip-rule="evenodd" d="M32.4844 30.6659C34.6676 30.6659 36.4375 28.969 36.4375 26.8757C36.4375 24.7825 34.6676 23.0856 32.4844 23.0856C30.3011 23.0856 28.5312 24.7825 28.5312 26.8757C28.5312 28.969 30.3011 30.6659 32.4844 30.6659ZM54.4844 30.6659C56.6676 30.6659 58.4375 28.969 58.4375 26.8757C58.4375 24.7825 56.6676 23.0856 54.4844 23.0856C52.3011 23.0856 50.5312 24.7825 50.5312 26.8757C50.5312 28.969 52.3011 30.6659 54.4844 30.6659Z" fill="#121417"/>
<path fill-rule="evenodd" clip-rule="evenodd" d="M43.6562 32.561C41.6928 32.5899 39.8898 31.7743 39.0271 29.6366C38.895 29.3094 38.9403 28.9412 39.1114 28.6325L39.141 28.579C39.4573 28.0084 40.1619 27.7808 40.7522 28.0587C41.0691 28.2079 41.2976 28.4895 41.4448 28.8074C41.9386 29.874 42.7821 30.3317 43.4844 30.3213C44.1507 30.3115 44.9192 29.9091 45.3335 29.0463C45.5135 28.6715 45.7623 28.3183 46.134 28.132L46.2652 28.0662C46.8321 27.7821 47.5222 27.9763 47.8577 28.5144C48.0289 28.789 48.0907 29.1225 47.9934 29.4312C47.3148 31.5838 45.6258 32.5319 43.6562 32.561Z" fill="black"/>
<path fill-rule="evenodd" clip-rule="evenodd" d="M76.1406 7.23578C78.134 7.23578 79.75 5.61599 79.75 3.61789C79.75 1.61978 78.134 0 76.1406 0C74.1472 0 72.5312 1.61978 72.5312 3.61789C72.5312 5.61599 74.1472 7.23578 76.1406 7.23578ZM11.3438 15.6775C11.3438 17.4853 9.88168 18.9508 8.07812 18.9508C6.27457 18.9508 4.8125 17.4853 4.8125 15.6775C4.8125 13.8697 6.27457 12.4042 8.07812 12.4042C9.88168 12.4042 11.3438 13.8697 11.3438 15.6775ZM4.8125 35.662C4.8125 36.899 3.73519 37.9017 2.40625 37.9017C1.07731 37.9017 0 36.899 0 35.662C0 34.4251 1.07731 33.4224 2.40625 33.4224C3.73519 33.4224 4.8125 34.4251 4.8125 35.662ZM82.1562 19.2954C82.1562 20.6275 81.0789 21.7073 79.75 21.7073C78.4211 21.7073 77.3438 20.6275 77.3438 19.2954C77.3438 17.9633 78.4211 16.8835 79.75 16.8835C81.0789 16.8835 82.1562 17.9633 82.1562 19.2954ZM85.5938 37.5571C86.9227 37.5571 88 36.4773 88 35.1452C88 33.8131 86.9227 32.7333 85.5938 32.7333C84.2648 32.7333 83.1875 33.8131 83.1875 35.1452C83.1875 36.4773 84.2648 37.5571 85.5938 37.5571Z" fill="#F0D8FC"/>
</svg>
